<svg width="45" height="44" viewBox="0 0 45 44" fill="none" xmlns="http://www.w3.org/2000/svg">
<path d="M31.7583 37.18C29.9616 38.9217 28 38.6467 26.1116 37.8217C24.1133 36.9783 22.28 36.9417 20.1716 37.8217C17.5316 38.9583 16.1383 38.6283 14.5616 37.18C5.61497 27.9583 6.93498 13.915 17.0916 13.4017C19.5666 13.53 21.29 14.7583 22.7383 14.8683C24.9016 14.4283 26.9733 13.1633 29.2833 13.3283C32.0516 13.5483 34.1416 14.6483 35.5166 16.6283C29.7966 20.0567 31.1533 27.5917 36.3966 29.7C35.3516 32.45 33.995 35.1817 31.74 37.1983L31.7583 37.18ZM22.555 13.2917C22.28 9.20333 25.5983 5.83 29.4116 5.5C29.9433 10.23 25.1216 13.75 22.555 13.2917Z" fill="white"/>
</svg>
