<svg width="68" height="54" viewBox="0 0 68 54" fill="none" xmlns="http://www.w3.org/2000/svg">
<path fill-rule="evenodd" clip-rule="evenodd" d="M34.8031 10.4775C34.7157 10.9134 34.6702 11.3283 34.6702 11.7124C34.6906 11.6919 34.7361 11.5839 34.8115 11.4048C34.8762 11.2511 34.9629 11.0451 35.0748 10.7972C35.8845 11.7215 37.0376 12.816 38.2579 13.9742L38.2579 13.9743L38.2579 13.9743C39.5765 15.2259 40.9735 16.5519 42.1006 17.8181C42.0518 17.9694 41.9782 18.2215 41.8839 18.5446L41.8839 18.5447L41.8839 18.5447C41.3305 20.4398 40.0644 24.7764 38.9204 25.5373C37.4139 26.428 36.4097 25.3889 36.2423 24.6467C36.0617 23.846 36.6227 23.0057 37.1487 22.2178C37.3762 21.877 37.5971 21.5461 37.7487 21.2324C38.2508 20.9355 38.4182 19.7479 37.7487 19.8963C38.0835 18.7088 37.2466 16.0367 35.4054 15.7398C35.4612 15.1955 35.3384 14.1069 34.4011 14.1069C33.4638 14.1069 33.341 15.1955 33.3968 15.7398C31.0872 16.2519 31.0084 18.0359 30.9618 19.093C30.9408 19.5681 30.9263 19.8963 30.7187 19.8963C30.1649 19.756 30.3964 20.337 30.578 20.7929C30.6526 20.98 30.7187 21.146 30.7187 21.2324C32.3927 22.5684 32.6158 24.2508 32.3927 24.7951C29.8818 29.2485 26.7016 20.4901 26.7017 17.3728C27.876 16.6437 31.3674 13.1214 33.5634 10.8307C33.668 11.0637 33.7499 11.2581 33.8117 11.4048C33.8871 11.5839 33.9325 11.6919 33.953 11.7124C33.953 11.3491 33.9123 10.9581 33.8339 10.548C34.0381 10.334 34.2284 10.1336 34.4013 9.9504C34.5172 10.1175 34.652 10.2935 34.8031 10.4775ZM35.8627 9.24839C36.6192 10.285 38.2113 11.4516 39.9095 12.6959C41.2122 13.6504 42.5773 14.6507 43.6756 15.6731C44.707 11.6906 44.9005 6.61063 42.8718 2.67381C39.1739 4.37287 37.0275 7.20582 35.8627 9.24839ZM44.235 16.2213C47.1873 10.2066 45.9619 6.61805 44.0619 1.05406L44.0435 1C40.1923 1.37269 36.8944 5.06474 35.45 8.44912C35.4106 8.30304 35.3948 8.16027 35.4053 8.02097C34.5684 2.23152 33.5641 5.89324 33.3968 8.02097C33.4085 8.25102 33.3676 8.48083 33.2814 8.7108C31.8988 5.25776 28.5303 1.38232 24.5797 1L24.5612 1.05406C22.6687 6.59619 21.4455 10.1784 24.3535 16.1505C24.2978 16.2115 24.2436 16.2726 24.1908 16.334C23.9471 16.4961 23.8531 16.968 23.8734 17.6476C19.5505 12.5838 13.0535 10.7376 6.0475 13.2189C6.66123 18.4635 9.89726 29.4548 22.6182 28.9528C16.4251 27.8873 9.39512 24.2661 7.72131 13.8885C10.941 13.0835 18.4248 13.1858 23.9146 18.2447C24.2517 21.5594 26.458 28.0858 27.8732 30.1396C28.0523 30.219 28.1078 30.7843 28.1672 31.3886V31.3886C28.2452 32.1827 28.3299 33.0443 28.7101 32.96C29.547 34.296 29.7096 34.7414 29.8818 35.6321C30.6852 39.7886 27.8174 43.203 26.3668 44.539C28.8819 44.9269 30.129 46.0752 31.5723 47.4043C34.5474 50.1439 38.3568 53.6516 55.8258 52.852C51.407 52.6145 49.4095 51.5655 48.9632 51.0706C60.8472 48.8439 55.3237 45.0744 51.6413 44.539C43.4731 43.3514 40.4268 46.0234 37.7487 48.3986C40.2594 47.5078 46.9546 45.578 50.3022 47.0625C46.7872 47.2109 43.8748 47.8641 40.9289 48.6954C39.9246 49.0418 37.3469 49.4675 35.0706 48.3986C35.7401 47.3594 39.9246 44.9842 42.4353 44.0935C37.2517 38.9855 38.5091 36.1845 39.4946 33.9893C39.6547 33.6326 39.8076 33.292 39.9246 32.96C40.3222 32.725 40.3263 32.1409 40.3304 31.5569C40.3346 30.9607 40.3387 30.3645 40.7615 30.1396C42.4091 27.5824 44.4662 20.7302 44.7241 17.8583C50.2699 12.8814 57.6866 13.073 60.949 13.8886C59.2752 24.2662 52.2452 27.8874 46.0521 28.9528C58.773 29.4549 62.0091 18.4636 62.6228 13.219C56.0619 10.0877 49.2353 12.6683 44.7464 17.5291C44.7658 17.0764 44.7249 16.7613 44.6113 16.6309C44.4921 16.4941 44.3664 16.3575 44.235 16.2213ZM24.9232 15.5784C23.9132 11.6103 23.7387 6.57947 25.7513 2.67381C29.5651 4.4261 31.7286 7.38442 32.8671 9.43796C32.0633 10.5068 30.453 11.5877 28.7677 12.719C27.4066 13.6326 25.9967 14.579 24.9232 15.5784ZM67.4766 44.1838C66.6396 38.1582 58.2709 28.6175 46.2193 31.128C57.7684 29.6218 64.4481 39.4712 65.4506 43.0128C55.6161 46.7248 50.2252 40.6566 46.2193 35.8148C52.7471 47.3641 62.622 46.2612 67.4766 44.1838ZM22.2573 31.128C10.2058 28.6175 1.83699 38.1582 1 44.1838C5.8546 46.2612 15.7295 47.3641 22.2573 35.8148C18.2514 40.6566 12.8605 46.7248 3.02604 43.0128C4.02852 39.4712 10.7082 29.6218 22.2573 31.128ZM46.2193 23.0942C48.1721 20.8067 53.015 16.332 56.7643 16.7338C52.9146 17.637 48.2279 20.9183 46.2193 23.0942ZM22.2839 23.0942C20.3311 20.8067 15.4882 16.332 11.7389 16.7338C15.5886 17.637 20.2753 20.9183 22.2839 23.0942ZM46.8885 33.1371C49.6483 32.7282 55.919 33.7706 60.0406 39.4803C58.4955 36.459 54.8951 31.4059 46.8885 33.1371ZM60.0406 39.4803C60.3289 40.0441 60.5456 40.5371 60.7061 40.9021C61.016 41.6069 61.1159 41.8342 61.1159 41.1713C60.7784 40.5667 60.4185 40.0039 60.0406 39.4803ZM8.46241 39.4803C12.5839 33.7706 18.8547 32.7282 21.6145 33.1371C13.6078 31.4059 10.0075 36.459 8.46241 39.4803ZM8.46241 39.4803C8.08444 40.0039 7.72454 40.5667 7.38709 41.1713C7.38709 41.8342 7.487 41.6069 7.79685 40.9021C7.95731 40.5371 8.17407 40.0441 8.46241 39.4803ZM2.84828 21.9226C3.01566 23.0943 3.95299 25.7389 6.36328 26.944C7.03281 27.2788 -0.164631 26.944 2.84828 21.9226ZM49.5449 2.07371C50.3794 2.91295 51.9357 4.56521 51.8421 7.24167C53.2571 6.44722 54.1746 2.80118 49.5449 2.07371ZM16.78 7.47662C16.8819 6.29744 17.6704 3.60471 20.0098 2.26713C20.6596 1.89559 13.492 2.63088 16.78 7.47662ZM65.935 32.1097C65.5667 30.9849 64.1843 28.5433 61.6014 27.775C60.8839 27.5616 68.0301 26.6414 65.935 32.1097ZM32.8787 30.3471C33.6676 31.231 34.4913 32.1538 34.5748 33.405C34.5748 32.0064 35.5512 30.927 36.4219 29.9646C37.1222 29.1904 37.754 28.492 37.754 27.764C37.1766 28.4224 36.5586 28.8284 36.0002 29.1953L36.0002 29.1953C35.4254 29.5729 34.9139 29.909 34.5748 30.4361C34.3642 30.0012 33.8738 29.7223 33.3325 29.4144C32.5805 28.9866 31.73 28.5029 31.3945 27.4671C31.3101 28.5898 32.0764 29.4483 32.8787 30.3471ZM15.321 44.9839C25.096 43.3212 28.3753 45.7261 31.3895 48.8435C25.6845 46.3142 21.3265 46.5306 19.884 46.6022C19.718 46.6105 19.5905 46.6168 19.5042 46.6168C18.8346 46.6168 18.7788 46.9137 18.8346 47.0621C19.1912 47.1977 19.7866 47.259 20.5631 47.3389H20.5631C22.3381 47.5216 25.0597 47.8018 28.0406 49.2888C32.3255 51.4265 37.5263 52.6536 39.5911 53L14.5212 52.7238C13.2243 52.7179 12.5274 52.7127 12.6428 52.7031C16.9417 52.3456 18.3332 51.8536 18.9718 51.6278L18.9719 51.6278C19.1287 51.5723 19.2401 51.5329 19.3381 51.5155C20.1737 51.3671 20.0634 51.1692 19.6729 51.0702C10.2995 50.2389 11.9733 45.5532 15.321 44.9839Z" fill="#37584E"/>
<path d="M34.6702 11.7124H34.4202V12.316L34.8469 11.8891L34.6702 11.7124ZM34.8031 10.4775L35.0482 10.5267L35.0715 10.4104L34.9963 10.3188L34.8031 10.4775ZM34.8115 11.4048L34.5811 11.3078V11.3078L34.8115 11.4048ZM35.0748 10.7972L35.2628 10.6325L35.0067 10.3402L34.8469 10.6944L35.0748 10.7972ZM38.2579 13.9742L38.4347 13.7974L38.43 13.7929L38.2579 13.9742ZM38.2579 13.9743L38.081 14.1512L38.089 14.1586L38.2579 13.9743ZM38.2579 13.9743L38.4301 13.7929L38.4269 13.79L38.2579 13.9743ZM42.1006 17.8181L42.3386 17.8947L42.3824 17.7587L42.2873 17.6519L42.1006 17.8181ZM41.8839 18.5446L42.1218 18.6218L42.1239 18.6147L41.8839 18.5446ZM41.8839 18.5447L42.1211 18.6237L42.1217 18.6218L41.8839 18.5447ZM41.8839 18.5447L41.6465 18.4656L41.6439 18.4746L41.8839 18.5447ZM38.9204 25.5373L39.0478 25.7528L39.0588 25.7455L38.9204 25.5373ZM36.2423 24.6467L35.9984 24.7016L36.2423 24.6467ZM37.1487 22.2178L36.9408 22.079V22.079L37.1487 22.2178ZM37.7487 21.2324L37.6215 21.0172L37.5565 21.0556L37.5236 21.1236L37.7487 21.2324ZM37.7487 19.8963L37.5081 19.8285L37.3947 20.2309L37.8028 20.1404L37.7487 19.8963ZM35.4054 15.7398L35.1567 15.7143L35.1326 15.9491L35.3656 15.9866L35.4054 15.7398ZM33.3968 15.7398L33.4509 15.9839L33.6682 15.9357L33.6455 15.7143L33.3968 15.7398ZM30.9618 19.093L31.2115 19.104H31.2115L30.9618 19.093ZM30.7187 19.8963L30.6573 20.1387L30.6875 20.1463H30.7187V19.8963ZM30.578 20.7929L30.3458 20.8854L30.578 20.7929ZM30.7187 21.2324H30.4687V21.3527L30.5628 21.4278L30.7187 21.2324ZM32.3927 24.7951L32.6105 24.9179L32.6181 24.9043L32.624 24.8899L32.3927 24.7951ZM26.7017 17.3728L26.5699 17.1604L26.4517 17.2337L26.4517 17.3727L26.7017 17.3728ZM33.5634 10.8307L33.7915 10.7283L33.6396 10.39L33.383 10.6577L33.5634 10.8307ZM33.8117 11.4048L34.0421 11.3078V11.3078L33.8117 11.4048ZM33.953 11.7124L33.7762 11.8891L34.203 12.316V11.7124H33.953ZM33.8339 10.548L33.653 10.3754L33.5642 10.4685L33.5883 10.5949L33.8339 10.548ZM34.4013 9.9504L34.6067 9.80789L34.431 9.5547L34.2195 9.77879L34.4013 9.9504ZM35.8627 9.24839L35.6455 9.12454L35.5654 9.26507L35.6607 9.39576L35.8627 9.24839ZM39.9095 12.6959L39.7617 12.8976L39.9095 12.6959ZM43.6756 15.6731L43.5052 15.8561L43.8124 16.1421L43.9176 15.7358L43.6756 15.6731ZM42.8718 2.67381L43.094 2.55929L42.9846 2.34687L42.7674 2.44664L42.8718 2.67381ZM44.0619 1.05406L43.8254 1.13485V1.13485L44.0619 1.05406ZM44.235 16.2213L44.0106 16.1111L43.9333 16.2685L44.055 16.3948L44.235 16.2213ZM44.0435 1L44.2801 0.919215L44.2162 0.732119L44.0194 0.751162L44.0435 1ZM35.45 8.44912L35.2086 8.5142L35.3965 9.2112L35.6799 8.54725L35.45 8.44912ZM35.4053 8.02097L35.6546 8.03972L35.6567 8.01236L35.6527 7.98521L35.4053 8.02097ZM33.3968 8.02097L33.1475 8.00137L33.1462 8.01756L33.1471 8.03377L33.3968 8.02097ZM33.2814 8.7108L33.0493 8.80373L33.2891 9.40248L33.5155 8.79857L33.2814 8.7108ZM24.5797 1L24.6037 0.751162L24.407 0.732119L24.3431 0.919215L24.5797 1ZM24.5612 1.05406L24.7978 1.13485V1.13485L24.5612 1.05406ZM24.3535 16.1505L24.5381 16.3192L24.6527 16.1938L24.5783 16.0411L24.3535 16.1505ZM24.1908 16.334L24.3293 16.5422L24.358 16.5231L24.3805 16.4969L24.1908 16.334ZM23.8734 17.6476L23.6833 17.8099L24.1446 18.3502L24.1233 17.6401L23.8734 17.6476ZM6.0475 13.2189L5.96404 12.9832L5.77601 13.0498L5.79919 13.248L6.0475 13.2189ZM22.6182 28.9528L22.6281 29.2026L22.6606 28.7064L22.6182 28.9528ZM7.72131 13.8885L7.66067 13.646L7.43794 13.7016L7.4745 13.9283L7.72131 13.8885ZM23.9146 18.2447L24.1633 18.2194L24.1537 18.1251L24.084 18.0608L23.9146 18.2447ZM27.8732 30.1396L27.6674 30.2815L27.7074 30.3396L27.7719 30.3682L27.8732 30.1396ZM28.1672 31.3886H28.4172V31.3764L28.416 31.3642L28.1672 31.3886ZM28.1672 31.3886H27.9172V31.4009L27.9184 31.4131L28.1672 31.3886ZM28.7101 32.96L28.9219 32.8273L28.8283 32.6777L28.656 32.716L28.7101 32.96ZM29.8818 35.6321L29.6363 35.6795L29.8818 35.6321ZM26.3668 44.539L26.1974 44.3551L25.8154 44.7069L26.3287 44.7861L26.3668 44.539ZM31.5723 47.4043L31.403 47.5882L31.5723 47.4043ZM55.8258 52.852L55.8372 53.1017L55.8392 52.6024L55.8258 52.852ZM48.9632 51.0706L48.9172 50.8249L48.4789 50.907L48.7776 51.2381L48.9632 51.0706ZM51.6413 44.539L51.6773 44.2916L51.6413 44.539ZM37.7487 48.3986L37.5828 48.2116L37.8323 48.6342L37.7487 48.3986ZM50.3022 47.0625L50.3128 47.3123L50.4036 46.8339L50.3022 47.0625ZM40.9289 48.6954L40.861 48.4548L40.8541 48.4567L40.8474 48.4591L40.9289 48.6954ZM35.0706 48.3986L34.8604 48.2632L34.7056 48.5034L34.9643 48.6249L35.0706 48.3986ZM42.4353 44.0935L42.5189 44.3292L42.8951 44.1957L42.6108 43.9155L42.4353 44.0935ZM39.4946 33.9893L39.2666 33.8869L39.4946 33.9893ZM39.9246 32.96L39.7974 32.7448L39.719 32.7911L39.6888 32.8769L39.9246 32.96ZM40.3304 31.5569L40.5804 31.5587V31.5587L40.3304 31.5569ZM40.7615 30.1396L40.8789 30.3603L40.9364 30.3298L40.9717 30.275L40.7615 30.1396ZM44.7241 17.8583L44.5571 17.6722L44.4839 17.738L44.4751 17.8359L44.7241 17.8583ZM60.949 13.8886L61.1958 13.9284L61.2323 13.7017L61.0096 13.646L60.949 13.8886ZM46.0521 28.9528L46.0097 28.7065L46.0422 29.2026L46.0521 28.9528ZM62.6228 13.219L62.8711 13.248L62.8919 13.0704L62.7305 12.9934L62.6228 13.219ZM44.7464 17.5291L44.4967 17.5184L44.4676 18.1996L44.9301 17.6987L44.7464 17.5291ZM44.6113 16.6309L44.4228 16.7951V16.7951L44.6113 16.6309ZM25.7513 2.67381L25.8557 2.44664L25.6386 2.34687L25.5291 2.55929L25.7513 2.67381ZM24.9232 15.5784L24.681 15.64L24.785 16.0487L25.0936 15.7613L24.9232 15.5784ZM32.8671 9.43796L33.0669 9.58821L33.1644 9.45858L33.0857 9.31674L32.8671 9.43796ZM28.7677 12.719L28.907 12.9265L28.7677 12.719ZM46.2193 31.128L46.1683 30.8833L46.2516 31.3759L46.2193 31.128ZM67.4766 44.1838L67.575 44.4137L67.7505 44.3386L67.7242 44.1495L67.4766 44.1838ZM65.4506 43.0128L65.5389 43.2467L65.7537 43.1656L65.6911 42.9447L65.4506 43.0128ZM46.2193 35.8148L46.4119 35.6555L46.0016 35.9378L46.2193 35.8148ZM1 44.1838L0.752377 44.1495L0.726108 44.3386L0.901647 44.4137L1 44.1838ZM22.2573 31.128L22.225 31.3759L22.3083 30.8833L22.2573 31.128ZM22.2573 35.8148L22.475 35.9378L22.0647 35.6555L22.2573 35.8148ZM3.02604 43.0128L2.78549 42.9447L2.72296 43.1656L2.93776 43.2467L3.02604 43.0128ZM46.2193 23.0942L46.0292 22.9319L46.403 23.2638L46.2193 23.0942ZM56.7643 16.7338L56.8214 16.9771L56.7909 16.4852L56.7643 16.7338ZM22.2839 23.0942L22.1002 23.2638L22.474 22.9319L22.2839 23.0942ZM11.7389 16.7338L11.7123 16.4852L11.6818 16.9771L11.7389 16.7338ZM46.8885 33.1371L46.8357 32.8927L46.9251 33.3844L46.8885 33.1371ZM60.7061 40.9021L60.4772 41.0027L60.7061 40.9021ZM61.1159 41.1713H61.3659V41.1063L61.3342 41.0495L61.1159 41.1713ZM21.6145 33.1371L21.5778 33.3844L21.6673 32.8927L21.6145 33.1371ZM7.38709 41.1713L7.16879 41.0495L7.13709 41.1063V41.1713H7.38709ZM7.79685 40.9021L8.02571 41.0027L7.79685 40.9021ZM2.84828 21.9226L3.09577 21.8872L2.99619 21.1902L2.63391 21.794L2.84828 21.9226ZM6.36328 26.944L6.25147 27.1676L6.25148 27.1676L6.36328 26.944ZM49.5449 2.07371L49.5837 1.82674L48.8288 1.70811L49.3676 2.24999L49.5449 2.07371ZM51.8421 7.24167L51.5923 7.23294L51.5768 7.67739L51.9645 7.45966L51.8421 7.24167ZM16.78 7.47662L16.5732 7.61699L16.9685 8.19965L17.0291 7.49813L16.78 7.47662ZM20.0098 2.26713L19.8857 2.0501L19.8857 2.0501L20.0098 2.26713ZM65.935 32.1097L65.6974 32.1875L65.9165 32.8567L66.1684 32.1992L65.935 32.1097ZM61.6014 27.775L61.6727 27.5353L61.6727 27.5353L61.6014 27.775ZM34.5748 33.405L34.3253 33.4217L34.8248 33.405H34.5748ZM32.8787 30.3471L32.6921 30.5136L32.8787 30.3471ZM36.4219 29.9646L36.6073 30.1323V30.1323L36.4219 29.9646ZM37.754 27.764H38.004V27.0998L37.5661 27.5992L37.754 27.764ZM36.0002 29.1953L35.8629 28.9864L35.8564 28.9906L35.8502 28.9953L36.0002 29.1953ZM36.0002 29.1953L36.1375 29.4043L36.144 29.4L36.1502 29.3953L36.0002 29.1953ZM34.5748 30.4361L34.3498 30.545L34.5439 30.9461L34.785 30.5714L34.5748 30.4361ZM33.3325 29.4144L33.2089 29.6317L33.3325 29.4144ZM31.3945 27.4671L31.6324 27.3901L31.1452 27.4484L31.3945 27.4671ZM31.3895 48.8435L31.2882 49.072L31.5693 48.6697L31.3895 48.8435ZM15.321 44.9839L15.3629 45.2303H15.3629L15.321 44.9839ZM19.884 46.6022L19.8716 46.3525H19.8716L19.884 46.6022ZM18.8346 47.0621L18.6006 47.1501L18.6403 47.2557L18.7458 47.2958L18.8346 47.0621ZM20.5631 47.3389L20.5375 47.5876L20.5503 47.5889H20.5631V47.3389ZM20.5631 47.3389L20.5887 47.0902L20.576 47.0889H20.5631V47.3389ZM28.0406 49.2888L28.1522 49.0651L28.0406 49.2888ZM39.5911 53L39.5884 53.25L39.6325 52.7535L39.5911 53ZM14.5212 52.7238L14.524 52.4738L14.5223 52.4738L14.5212 52.7238ZM12.6428 52.7031L12.6221 52.454L12.6221 52.454L12.6428 52.7031ZM18.9718 51.6278L19.0552 51.8635L19.0644 51.8602L19.0733 51.8563L18.9718 51.6278ZM18.9719 51.6278L18.8885 51.3921L18.8793 51.3954L18.8703 51.3993L18.9719 51.6278ZM19.3381 51.5155L19.3818 51.7617H19.3818L19.3381 51.5155ZM19.6729 51.0702L19.7343 50.8279L19.7149 50.823L19.695 50.8212L19.6729 51.0702ZM34.9202 11.7124C34.9202 11.3477 34.9634 10.9494 35.0482 10.5267L34.558 10.4284C34.4679 10.8774 34.4202 11.309 34.4202 11.7124H34.9202ZM34.5811 11.3078C34.5429 11.3986 34.514 11.467 34.4922 11.5156C34.4812 11.54 34.4738 11.5555 34.4691 11.5644C34.4667 11.5689 34.4665 11.569 34.4681 11.5664C34.4683 11.5661 34.4768 11.5522 34.4934 11.5356L34.8469 11.8891C34.8824 11.8537 34.9046 11.8105 34.9115 11.7973C34.9234 11.7747 34.9359 11.7481 34.9482 11.7206C34.9731 11.6652 35.0047 11.5901 35.0419 11.5018L34.5811 11.3078ZM34.8469 10.6944C34.7336 10.9454 34.6459 11.154 34.5811 11.3078L35.0419 11.5018C35.1065 11.3483 35.1922 11.1448 35.3027 10.9L34.8469 10.6944ZM38.43 13.7929C37.2067 12.6317 36.0633 11.5461 35.2628 10.6325L34.8867 10.962C35.7058 11.8968 36.8686 13.0002 38.0858 14.1556L38.43 13.7929ZM38.4347 13.7975L38.4347 13.7975L38.0811 14.151L38.0811 14.151L38.4347 13.7975ZM38.4269 13.79L38.4268 13.79L38.089 14.1586L38.089 14.1586L38.4269 13.79ZM42.2873 17.6519C41.1519 16.3763 39.7467 15.0427 38.43 13.793L38.0858 14.1556C39.4063 15.409 40.7951 16.7275 41.9139 17.9843L42.2873 17.6519ZM42.1239 18.6147C42.2188 18.2897 42.2911 18.0419 42.3386 17.8947L41.8626 17.7414C41.8125 17.8969 41.7377 18.1533 41.6439 18.4745L42.1239 18.6147ZM42.1217 18.6218L42.1217 18.6217L41.6461 18.4675L41.6461 18.4675L42.1217 18.6218ZM42.1211 18.6238L42.1211 18.6237L41.6467 18.4656L41.6467 18.4656L42.1211 18.6238ZM39.0588 25.7455C39.4017 25.5174 39.7198 25.0526 40.0091 24.5074C40.3046 23.9505 40.5918 23.2665 40.8578 22.5538C41.3902 21.1278 41.8475 19.5613 42.1239 18.6148L41.6439 18.4746C41.3669 19.4232 40.9144 20.9726 40.3894 22.3789C40.1268 23.0824 39.8483 23.7436 39.5674 24.273C39.2802 24.8142 39.0111 25.1768 38.7819 25.3292L39.0588 25.7455ZM35.9984 24.7016C36.0974 25.1406 36.4345 25.6488 36.9631 25.9258C37.509 26.2118 38.2289 26.2366 39.0476 25.7525L38.7931 25.3221C38.1054 25.7288 37.5699 25.6793 37.1952 25.4829C36.8032 25.2775 36.5546 24.895 36.4862 24.5917L35.9984 24.7016ZM36.9408 22.079C36.6804 22.469 36.396 22.8938 36.2024 23.3251C36.0084 23.7575 35.8913 24.2265 35.9984 24.7016L36.4862 24.5917C36.4127 24.2661 36.4858 23.9147 36.6586 23.5298C36.8319 23.1438 37.091 22.7545 37.3566 22.3566L36.9408 22.079ZM37.5236 21.1236C37.3811 21.4186 37.1709 21.7343 36.9408 22.079L37.3566 22.3566C37.5815 22.0198 37.8132 21.6736 37.9738 21.3411L37.5236 21.1236ZM37.8028 20.1404C37.8536 20.1292 37.8778 20.1346 37.8849 20.1369C37.8899 20.1385 37.8943 20.1407 37.9011 20.1498C37.921 20.1767 37.9473 20.2505 37.9386 20.3808C37.9305 20.5039 37.8928 20.643 37.8314 20.7651C37.7688 20.8895 37.6924 20.9752 37.6215 21.0172L37.8759 21.4476C38.056 21.3411 38.1889 21.167 38.278 20.9898C38.3683 20.8104 38.4248 20.6063 38.4375 20.4139C38.4498 20.2288 38.4238 20.015 38.3025 19.8517C38.2386 19.7657 38.1502 19.6971 38.0382 19.661C37.9283 19.6256 37.8112 19.6264 37.6946 19.6523L37.8028 20.1404ZM35.3656 15.9866C36.1692 16.1162 36.7855 16.7719 37.1664 17.5896C37.5486 18.4102 37.6538 19.3115 37.5081 19.8285L37.9893 19.9642C38.1783 19.2936 38.0325 18.2651 37.6196 17.3785C37.2054 16.4891 36.4827 15.6603 35.4452 15.493L35.3656 15.9866ZM34.4011 14.3569C34.5834 14.3569 34.7121 14.4086 34.808 14.483C34.9072 14.56 34.9859 14.673 35.0447 14.8149C35.1645 15.1043 35.182 15.4674 35.1567 15.7143L35.6541 15.7653C35.6846 15.4679 35.6685 15.0146 35.5066 14.6236C35.4245 14.4254 35.3003 14.2322 35.1146 14.088C34.9256 13.9413 34.6874 13.8569 34.4011 13.8569V14.3569ZM33.6455 15.7143C33.6202 15.4674 33.6377 15.1043 33.7575 14.8149C33.8163 14.673 33.895 14.56 33.9942 14.483C34.0901 14.4086 34.2188 14.3569 34.4011 14.3569V13.8569C34.1147 13.8569 33.8766 13.9413 33.6876 14.088C33.5019 14.2322 33.3776 14.4254 33.2955 14.6236C33.1336 15.0146 33.1176 15.4679 33.1481 15.7653L33.6455 15.7143ZM31.2115 19.104C31.2351 18.5695 31.2672 17.9106 31.5552 17.3219C31.8341 16.752 32.3661 16.2244 33.4509 15.9839L33.3427 15.4958C32.1179 15.7673 31.4557 16.3878 31.1061 17.1022C30.7657 17.7978 30.7351 18.5594 30.712 19.082L31.2115 19.104ZM30.7187 20.1463C30.8492 20.1463 30.9593 20.0893 31.0357 19.9948C31.1021 19.9128 31.1347 19.8131 31.154 19.7283C31.1924 19.5596 31.2015 19.3316 31.2115 19.104L30.712 19.082C30.7011 19.3295 30.6924 19.5032 30.6665 19.6174C30.6536 19.674 30.6423 19.6861 30.6469 19.6805C30.6615 19.6624 30.6921 19.6463 30.7187 19.6463V20.1463ZM30.8103 20.7003C30.7643 20.585 30.7187 20.4702 30.6828 20.3621C30.646 20.2511 30.6257 20.165 30.6221 20.1057C30.6179 20.037 30.6385 20.0732 30.5919 20.1098C30.5501 20.1426 30.5382 20.1085 30.6573 20.1387L30.7801 19.654C30.6223 19.614 30.4317 19.5999 30.2832 19.7165C30.1299 19.8368 30.1159 20.0204 30.123 20.1364C30.1308 20.2618 30.1678 20.3976 30.2082 20.5194C30.2495 20.6441 30.3009 20.7728 30.3458 20.8854L30.8103 20.7003ZM30.9687 21.2324C30.9687 21.1428 30.9382 21.0436 30.9129 20.9696C30.8846 20.8867 30.8468 20.7921 30.8103 20.7003L30.3458 20.8854C30.3838 20.9807 30.4163 21.0627 30.4397 21.1312C30.4662 21.2086 30.4687 21.2356 30.4687 21.2324H30.9687ZM32.624 24.8899C32.6994 24.706 32.7271 24.4571 32.7102 24.1813C32.6929 23.9006 32.6283 23.5741 32.5022 23.2256C32.2496 22.5272 31.7483 21.7342 30.8747 21.037L30.5628 21.4278C31.3631 22.0666 31.8103 22.7827 32.032 23.3957C32.1431 23.7028 32.197 23.9824 32.2111 24.212C32.2256 24.4465 32.1975 24.612 32.1614 24.7003L32.624 24.8899ZM26.4517 17.3727C26.4517 18.1851 26.6571 19.3423 26.9973 20.5421C27.3383 21.745 27.8206 23.0113 28.3864 24.0432C28.6692 24.5591 28.9761 25.0223 29.301 25.391C29.624 25.7574 29.9774 26.0449 30.3566 26.1867C30.7465 26.3325 31.1532 26.3195 31.5481 26.1015C31.9319 25.8897 32.2848 25.4954 32.6105 24.9179L32.1749 24.6723C31.8728 25.2081 31.5771 25.5144 31.3064 25.6638C31.0468 25.8071 30.7931 25.8161 30.5317 25.7184C30.2597 25.6166 29.971 25.3949 29.6761 25.0604C29.3831 24.7279 29.0964 24.2982 28.8248 23.8028C28.2816 22.812 27.812 21.5826 27.4783 20.4057C27.1438 19.2257 26.9517 18.1191 26.9517 17.3728L26.4517 17.3727ZM33.383 10.6577C32.2861 11.8019 30.8664 13.2529 29.5752 14.5081C28.9294 15.1358 28.3172 15.7132 27.7943 16.1783C27.2674 16.647 26.8432 16.9906 26.5699 17.1604L26.8336 17.5851C27.1474 17.3903 27.6 17.0203 28.1266 16.5519C28.6572 16.08 29.2753 15.4969 29.9237 14.8666C31.2207 13.6058 32.6448 12.1503 33.7439 11.0037L33.383 10.6577ZM34.0421 11.3078C33.9802 11.161 33.8974 10.9642 33.7915 10.7283L33.3354 10.9331C33.4387 11.1632 33.5195 11.3552 33.5812 11.5018L34.0421 11.3078ZM34.1298 11.5356C34.1463 11.5522 34.1549 11.5661 34.155 11.5664C34.1567 11.569 34.1565 11.5689 34.1541 11.5644C34.1494 11.5555 34.1419 11.54 34.1309 11.5156C34.1091 11.467 34.0803 11.3986 34.0421 11.3078L33.5812 11.5018C33.6184 11.5901 33.65 11.6652 33.6749 11.7206C33.6873 11.7481 33.6997 11.7747 33.7117 11.7973C33.7186 11.8105 33.7408 11.8537 33.7762 11.8891L34.1298 11.5356ZM33.5883 10.5949C33.6643 10.9923 33.703 11.3674 33.703 11.7124H34.203C34.203 11.3308 34.1603 10.9239 34.0794 10.5011L33.5883 10.5949ZM34.2195 9.77879C34.0469 9.9616 33.8569 10.1617 33.653 10.3754L34.0147 10.7206C34.2192 10.5063 34.4098 10.3055 34.583 10.122L34.2195 9.77879ZM34.9963 10.3188C34.8484 10.1388 34.7179 9.96823 34.6067 9.80789L34.1959 10.0929C34.3165 10.2668 34.4556 10.4483 34.6099 10.6362L34.9963 10.3188ZM35.6607 9.39576C36.0584 9.94065 36.6658 10.5078 37.3746 11.0878C38.0857 11.6696 38.914 12.2764 39.7617 12.8976L40.0573 12.4943C39.2068 11.8711 38.3899 11.2725 37.6912 10.7008C36.9903 10.1273 36.4235 9.59278 36.0646 9.10102L35.6607 9.39576ZM39.7617 12.8976C41.0673 13.8542 42.4198 14.8456 43.5052 15.8561L43.8459 15.4901C42.7349 14.4558 41.357 13.4466 40.0573 12.4943L39.7617 12.8976ZM43.9176 15.7358C44.9568 11.7232 45.1622 6.57279 43.094 2.55929L42.6496 2.78832C44.6387 6.64847 44.4572 11.658 43.4336 15.6104L43.9176 15.7358ZM42.7674 2.44664C39.0054 4.17515 36.8254 7.05559 35.6455 9.12454L36.0798 9.37224C37.2296 7.35605 39.3423 4.5706 42.9762 2.90098L42.7674 2.44664ZM43.8254 1.13485C44.7779 3.92431 45.5468 6.18077 45.7188 8.48726C45.8898 10.781 45.4701 13.1376 44.0106 16.1111L44.4594 16.3314C45.9522 13.2903 46.396 10.8453 46.2174 8.45009C46.0397 6.06763 45.246 3.7478 44.2985 0.973272L43.8254 1.13485ZM43.8069 1.08078L43.8254 1.13485L44.2985 0.973276L44.2801 0.919215L43.8069 1.08078ZM35.6799 8.54725C36.3893 6.88515 37.5554 5.14525 39.0151 3.77761C40.4758 2.40912 42.2139 1.42823 44.0676 1.24884L44.0194 0.751162C42.0219 0.944465 40.1855 1.99594 38.6733 3.41274C37.1602 4.83039 35.9551 6.62871 35.22 8.35098L35.6799 8.54725ZM35.156 8.00223C35.1432 8.17337 35.1629 8.34461 35.2086 8.5142L35.6913 8.38403C35.6583 8.26147 35.6465 8.14716 35.6546 8.03972L35.156 8.00223ZM33.646 8.04058C33.6869 7.52061 33.7792 6.90556 33.9068 6.36682C33.9706 6.09748 34.0423 5.85131 34.1191 5.64764C34.1976 5.43957 34.2749 5.29362 34.343 5.21087C34.4154 5.12288 34.419 5.16858 34.3744 5.15525C34.3685 5.15347 34.434 5.1783 34.5375 5.38935C34.7329 5.78808 34.9487 6.60937 35.1579 8.05674L35.6527 7.98521C35.4435 6.53785 35.22 5.6458 34.9864 5.16932C34.8754 4.94276 34.7291 4.73951 34.5179 4.67626C34.268 4.60146 34.0728 4.75231 33.9569 4.89318C33.8367 5.03929 33.7362 5.24591 33.6512 5.47119C33.5646 5.70088 33.4872 5.96886 33.4202 6.25157C33.2863 6.8169 33.1903 7.45747 33.1475 8.00137L33.646 8.04058ZM33.5155 8.79857C33.612 8.54129 33.6602 8.27723 33.6464 8.00818L33.1471 8.03377C33.1569 8.22481 33.1233 8.42036 33.0473 8.62303L33.5155 8.79857ZM24.5556 1.24884C26.4573 1.43287 28.2372 2.46048 29.7204 3.88424C31.2027 5.30703 32.3708 7.10903 33.0493 8.80373L33.5135 8.61787C32.8095 6.85953 31.602 4.99729 30.0667 3.52352C28.5324 2.05072 26.6527 0.949452 24.6037 0.751162L24.5556 1.24884ZM24.7978 1.13485L24.8163 1.08078L24.3431 0.919215L24.3246 0.973276L24.7978 1.13485ZM24.5783 16.0411C23.1409 13.089 22.7314 10.7446 22.9064 8.46015C23.0824 6.16299 23.849 3.91333 24.7978 1.13485L24.3246 0.973272C23.3809 3.73692 22.5896 6.04945 22.4079 8.42196C22.2252 10.8072 22.6582 13.2399 24.1288 16.26L24.5783 16.0411ZM24.3805 16.4969C24.4314 16.4376 24.484 16.3783 24.5381 16.3192L24.169 15.9818C24.1117 16.0446 24.0557 16.1077 24.0012 16.1711L24.3805 16.4969ZM24.1233 17.6401C24.1135 17.3105 24.1321 17.0465 24.1767 16.8528C24.223 16.6519 24.2871 16.5702 24.3293 16.5422L24.0524 16.1258C23.8509 16.2599 23.746 16.4952 23.6895 16.7406C23.6313 16.9932 23.6131 17.305 23.6236 17.655L24.1233 17.6401ZM24.0636 17.4852C19.6709 12.3399 13.0641 10.4686 5.96404 12.9832L6.13096 13.4546C13.043 11.0065 19.43 12.8277 23.6833 17.8099L24.0636 17.4852ZM5.79919 13.248C6.10873 15.8931 7.07989 20.0004 9.5918 23.3897C12.1138 26.7927 16.18 29.4571 22.6281 29.2026L22.6084 28.703C16.3355 28.9505 12.4232 26.3703 9.9935 23.092C7.55372 19.8 6.6 15.7893 6.29581 13.1898L5.79919 13.248ZM22.6606 28.7064C19.5931 28.1786 16.3338 27.0204 13.6372 24.7224C10.9449 22.4281 8.7963 18.9834 7.96812 13.8487L7.4745 13.9283C8.32013 19.1712 10.5234 22.7259 13.3129 25.103C16.098 27.4764 19.4503 28.6614 22.5758 29.1992L22.6606 28.7064ZM7.78194 14.131C10.9448 13.3403 18.334 13.4421 23.7452 18.4285L24.084 18.0608C18.5156 12.9296 10.9373 12.8268 7.66067 13.646L7.78194 14.131ZM28.0791 29.9978C27.3933 29.0025 26.497 26.8874 25.7267 24.5856C24.9581 22.2889 24.3291 19.8492 24.1633 18.2194L23.6659 18.27C23.8372 19.9548 24.4799 22.4357 25.2525 24.7443C26.0235 27.0479 26.9379 29.2229 27.6674 30.2815L28.0791 29.9978ZM28.416 31.3642C28.3867 31.066 28.3569 30.7606 28.3106 30.52C28.2875 30.4001 28.2579 30.283 28.2164 30.1854C28.1794 30.0985 28.1102 29.9712 27.9745 29.9111L27.7719 30.3682C27.7258 30.3477 27.7306 30.3209 27.7563 30.3812C27.7774 30.4308 27.799 30.5077 27.8196 30.6146C27.8606 30.8275 27.8883 31.1069 27.9184 31.4131L28.416 31.3642ZM28.4172 31.3886V31.3886H27.9172V31.3886H28.4172ZM28.656 32.716C28.6549 32.7162 28.6579 32.7154 28.6639 32.7159C28.67 32.7165 28.6762 32.7181 28.6812 32.7203C28.691 32.7246 28.6874 32.7267 28.6739 32.7092C28.643 32.669 28.6044 32.5845 28.5674 32.4413C28.4949 32.1601 28.4557 31.7682 28.416 31.3642L27.9184 31.4131C27.9567 31.8032 27.9989 32.2391 28.0833 32.5662C28.1248 32.727 28.1835 32.8918 28.2778 33.0142C28.3269 33.0781 28.3929 33.1398 28.4804 33.1782C28.5712 33.2181 28.6686 33.2253 28.7642 33.2041L28.656 32.716ZM30.1272 35.5846C30.0395 35.131 29.9517 34.7775 29.775 34.3647C29.6003 33.9564 29.3419 33.4977 28.9219 32.8273L28.4982 33.0927C28.9152 33.7584 29.1565 34.1903 29.3154 34.5614C29.4722 34.9279 29.5518 35.2424 29.6363 35.6795L30.1272 35.5846ZM26.5361 44.7229C27.9993 43.3753 30.957 39.8774 30.1272 35.5846L29.6363 35.6795C30.4134 39.6998 27.6355 43.0306 26.1974 44.3551L26.5361 44.7229ZM31.7417 47.2204C30.2943 45.8876 28.9996 44.6921 26.4049 44.2919L26.3287 44.7861C28.7643 45.1617 29.9636 46.2628 31.403 47.5882L31.7417 47.2204ZM55.8144 52.6023C47.0939 53.0014 41.8077 52.3239 38.3399 51.2172C34.8843 50.1145 33.2206 48.5822 31.7417 47.2204L31.403 47.5882C32.8992 48.966 34.6277 50.5574 38.1878 51.6935C41.7357 52.8257 47.0887 53.5022 55.8372 53.1017L55.8144 52.6023ZM48.7776 51.2381C49.046 51.5357 49.7091 51.9383 50.8287 52.296C51.9602 52.6574 53.5859 52.982 55.8124 53.1016L55.8392 52.6024C53.6468 52.4845 52.0644 52.1658 50.9809 51.8197C49.8856 51.4698 49.3267 51.1004 49.1488 50.9032L48.7776 51.2381ZM51.6053 44.7864C52.4975 44.9161 53.5047 45.2429 54.3279 45.6918C55.1656 46.1486 55.7494 46.6967 55.8987 47.2371C55.9697 47.4942 55.9462 47.7611 55.7864 48.0435C55.6225 48.333 55.3089 48.6485 54.782 48.9731C53.7258 49.6236 51.8792 50.2699 48.9172 50.8249L49.0092 51.3164C51.9892 50.758 53.9087 50.0982 55.0442 49.3988C55.613 49.0485 56.0016 48.6783 56.2215 48.2898C56.4455 47.8941 56.4875 47.4908 56.3806 47.104C56.1742 46.3567 55.4294 45.7229 54.5672 45.2528C53.6904 44.7747 52.6263 44.4296 51.6773 44.2916L51.6053 44.7864ZM37.9146 48.5856C39.2542 47.3976 40.6554 46.1645 42.7261 45.366C44.7943 44.5686 47.5528 44.1972 51.6053 44.7864L51.6773 44.2916C47.5616 43.6932 44.7129 44.0641 42.5463 44.8995C40.3823 45.7339 38.9213 47.0245 37.5828 48.2116L37.9146 48.5856ZM50.4036 46.8339C49.5234 46.4436 48.4394 46.2839 47.2846 46.2697C46.1271 46.2556 44.8821 46.3877 43.6698 46.5933C41.2455 47.0047 38.9297 47.7143 37.6651 48.163L37.8323 48.6342C39.0784 48.1921 41.3655 47.4915 43.7534 47.0863C44.9472 46.8837 46.1606 46.756 47.2785 46.7697C48.3989 46.7834 49.4072 46.9391 50.2009 47.291L50.4036 46.8339ZM40.9968 48.936C43.9331 48.1074 46.8248 47.4596 50.3128 47.3123L50.2917 46.8127C46.7497 46.9623 43.8165 47.6208 40.861 48.4548L40.9968 48.936ZM34.9643 48.6249C37.32 49.7311 39.9699 49.2907 41.0104 48.9317L40.8474 48.4591C39.8793 48.793 37.3738 49.2039 35.1768 48.1723L34.9643 48.6249ZM42.3517 43.8579C41.0773 44.31 39.3891 45.1343 37.9373 45.974C37.2106 46.3943 36.5384 46.8212 36.0035 47.2107C35.4787 47.5928 35.0558 47.9599 34.8604 48.2632L35.2807 48.534C35.4201 48.3177 35.7713 47.9982 36.2978 47.6149C36.8143 47.2389 37.4707 46.8215 38.1877 46.4068C39.6232 45.5764 41.2827 44.7677 42.5189 44.3292L42.3517 43.8579ZM39.2666 33.8869C38.7749 34.9821 38.1831 36.2906 38.4037 37.9814C38.6241 39.6717 39.6475 41.6973 42.2598 44.2716L42.6108 43.9155C40.0395 41.3817 39.0998 39.4528 38.8995 37.9168C38.6992 36.3813 39.2289 35.1916 39.7227 34.0916L39.2666 33.8869ZM39.6888 32.8769C39.5759 33.1973 39.4276 33.5281 39.2666 33.8869L39.7227 34.0916C39.8818 33.7371 40.0393 33.3867 40.1604 33.0431L39.6888 32.8769ZM40.0804 31.5552C40.0783 31.8539 40.0755 32.1194 40.0302 32.3388C39.9856 32.555 39.9093 32.6786 39.7974 32.7448L40.0518 33.1752C40.3375 33.0063 40.462 32.7204 40.5199 32.4398C40.5771 32.1625 40.5784 31.8439 40.5804 31.5587L40.0804 31.5552ZM40.6441 29.9189C40.3406 30.0804 40.2066 30.3695 40.1446 30.6562C40.0837 30.9382 40.0824 31.2643 40.0804 31.5552L40.5804 31.5587C40.5825 31.2534 40.5855 30.9832 40.6333 30.7619C40.6802 30.5452 40.7597 30.4238 40.8789 30.3603L40.6441 29.9189ZM44.4751 17.8359C44.3486 19.2446 43.7764 21.6551 43.0255 24.0419C42.2737 26.4314 41.3556 28.7559 40.5513 30.0042L40.9717 30.275C41.815 28.9661 42.7492 26.586 43.5024 24.192C44.2564 21.7955 44.8417 19.3439 44.9731 17.8807L44.4751 17.8359ZM61.0096 13.646C57.7001 12.8186 50.1866 12.6203 44.5571 17.6722L44.8911 18.0444C50.3532 13.1425 57.673 13.3273 60.8883 14.1311L61.0096 13.646ZM46.0945 29.1992C49.22 28.6615 52.5723 27.4764 55.3574 25.103C58.1468 22.726 60.3502 19.1713 61.1958 13.9284L60.7022 13.8488C59.874 18.9835 57.7254 22.4282 55.0331 24.7225C52.3365 27.0204 49.0772 28.1787 46.0097 28.7065L46.0945 29.1992ZM62.3745 13.1899C62.0703 15.7894 61.1166 19.8001 58.6768 23.0921C56.2471 26.3704 52.3348 28.9506 46.0619 28.703L46.0422 29.2026C52.4903 29.4571 56.5565 26.7927 59.0785 23.3898C61.5904 20.0005 62.5616 15.8932 62.8711 13.248L62.3745 13.1899ZM44.9301 17.6987C49.3689 12.8921 56.082 10.3743 62.5151 13.4446L62.7305 12.9934C56.0417 9.80104 49.1016 12.4445 44.5628 17.3595L44.9301 17.6987ZM44.4228 16.7951C44.4308 16.8043 44.4611 16.8556 44.4813 16.9951C44.5002 17.1253 44.506 17.3001 44.4967 17.5184L44.9962 17.5398C45.0062 17.3054 45.0013 17.0964 44.9761 16.9233C44.9524 16.7593 44.9054 16.5879 44.7998 16.4667L44.4228 16.7951ZM44.055 16.3948C44.1838 16.5283 44.3066 16.6618 44.4228 16.7951L44.7998 16.4667C44.6775 16.3264 44.549 16.1867 44.415 16.0477L44.055 16.3948ZM25.5291 2.55929C23.4772 6.54113 23.6633 11.6419 24.681 15.64L25.1655 15.5167C24.1631 11.5786 24.0002 6.61781 25.9736 2.78832L25.5291 2.55929ZM33.0857 9.31674C31.9327 7.23709 29.7356 4.22928 25.8557 2.44664L25.647 2.90098C29.3947 4.62292 31.5244 7.53175 32.6484 9.55918L33.0857 9.31674ZM28.907 12.9265C29.7481 12.362 30.5788 11.8045 31.2997 11.2537C32.0189 10.7043 32.6442 10.1503 33.0669 9.58821L32.6673 9.28771C32.2862 9.79445 31.7045 10.3153 30.9962 10.8564C30.2897 11.3961 29.4726 11.9447 28.6284 12.5114L28.907 12.9265ZM25.0936 15.7613C26.1496 14.7781 27.5415 13.8431 28.907 12.9265L28.6284 12.5114C27.2717 13.422 25.8437 14.3798 24.7529 15.3954L25.0936 15.7613ZM46.2703 31.3728C52.2158 30.1342 57.2482 31.867 60.9018 34.6537C64.565 37.4477 66.8215 41.2847 67.229 44.2182L67.7242 44.1495C67.2947 41.0574 64.9484 37.1112 61.205 34.2561C57.4521 31.3936 52.2743 29.6113 46.1683 30.8833L46.2703 31.3728ZM65.6911 42.9447C65.1743 41.1187 63.222 37.73 59.9506 34.986C56.6705 32.2346 52.0454 30.1161 46.187 30.8801L46.2516 31.3759C51.9423 30.6338 56.4317 32.6869 59.6293 35.369C62.8357 38.0585 64.7244 41.3652 65.21 43.0809L65.6911 42.9447ZM46.0267 35.9742C48.0275 38.3925 50.4045 41.1572 53.5306 42.8416C56.6734 44.5348 60.5553 45.1277 65.5389 43.2467L65.3623 42.7789C60.5114 44.6098 56.7806 44.0247 53.7678 42.4014C50.7384 40.7692 48.417 38.0789 46.4119 35.6555L46.0267 35.9742ZM67.3783 43.954C64.9871 44.9772 61.3598 45.7592 57.5322 44.8659C53.7146 43.9748 49.6695 41.411 46.4369 35.6918L46.0016 35.9378C49.2969 41.768 53.4532 44.4273 57.4186 45.3528C61.3741 46.276 65.1115 45.4678 67.575 44.4137L67.3783 43.954ZM1.24762 44.2182C1.65511 41.2847 3.91162 37.4477 7.57481 34.6537C11.2284 31.867 16.2608 30.1342 22.2064 31.3728L22.3083 30.8833C16.2023 29.6113 11.0246 31.3936 7.27159 34.2561C3.52825 37.1112 1.18188 41.0574 0.752377 44.1495L1.24762 44.2182ZM22.0397 35.6918C18.8071 41.411 14.762 43.9748 10.9444 44.8659C7.1168 45.7592 3.4895 44.9772 1.09835 43.954L0.901647 44.4137C3.3651 45.4678 7.10255 46.276 11.058 45.3528C15.0234 44.4273 19.1797 41.768 22.475 35.9378L22.0397 35.6918ZM2.93776 43.2467C7.92136 45.1277 11.8033 44.5348 14.946 42.8416C18.0721 41.1572 20.4491 38.3925 22.4499 35.9742L22.0647 35.6555C20.0597 38.0789 17.7383 40.7692 14.7088 42.4014C11.696 44.0247 7.96521 44.6098 3.11432 42.7789L2.93776 43.2467ZM22.2897 30.8801C16.4312 30.1161 11.8062 32.2346 8.52602 34.986C5.25467 37.73 3.30235 41.1187 2.78549 42.9447L3.26659 43.0809C3.75222 41.3652 5.64096 38.0585 8.84734 35.369C12.0449 32.6869 16.5343 30.6338 22.225 31.3759L22.2897 30.8801ZM46.4095 23.2565C47.3751 22.1254 49.0588 20.45 50.962 19.1099C52.8771 17.7615 54.9595 16.7918 56.7377 16.9823L56.7909 16.4852C54.8198 16.274 52.6061 17.3408 50.6742 18.7011C48.7304 20.0698 47.0163 21.7755 46.0292 22.9319L46.4095 23.2565ZM56.7072 16.4904C54.7445 16.9509 52.5837 18.0126 50.6677 19.2255C48.7509 20.4388 47.0586 21.8164 46.0356 22.9247L46.403 23.2638C47.3886 22.1961 49.0439 20.8451 50.9351 19.648C52.8269 18.4504 54.9343 17.4199 56.8214 16.9771L56.7072 16.4904ZM22.474 22.9319C21.4868 21.7755 19.7728 20.0698 17.829 18.7011C15.8971 17.3408 13.6834 16.274 11.7123 16.4852L11.7655 16.9823C13.5437 16.7918 15.6261 17.7615 17.5412 19.1099C19.4443 20.45 21.1281 22.1254 22.0937 23.2565L22.474 22.9319ZM11.6818 16.9771C13.5689 17.4199 15.6763 18.4504 17.5681 19.648C19.4593 20.8451 21.1146 22.1961 22.1002 23.2638L22.4676 22.9247C21.4446 21.8164 19.7523 20.4388 17.8355 19.2255C15.9195 18.0126 13.7587 16.9509 11.796 16.4904L11.6818 16.9771ZM46.9251 33.3844C49.6068 32.9871 55.7789 34.0037 59.8378 39.6266L60.2433 39.3339C56.0591 33.5376 49.6898 32.4693 46.8519 32.8898L46.9251 33.3844ZM60.2631 39.3664C59.4821 37.8392 58.1721 35.7783 56.0282 34.3198C53.8753 32.8552 50.9031 32.0133 46.8357 32.8927L46.9413 33.3814C50.8805 32.5297 53.7119 33.3488 55.747 34.7332C57.7912 36.1239 59.0539 38.1001 59.818 39.5941L60.2631 39.3664ZM60.935 40.8015C60.7744 40.4363 60.5551 39.9374 60.2631 39.3664L59.818 39.5941C60.1027 40.1508 60.3169 40.6379 60.4772 41.0027L60.935 40.8015ZM60.8659 41.1713C60.8659 41.3408 60.8586 41.4226 60.852 41.4512C60.8508 41.4562 60.8521 41.4478 60.8595 41.4331C60.8656 41.4209 60.888 41.3791 60.941 41.3479C61.0056 41.3098 61.0764 41.3099 61.13 41.3282C61.1731 41.3429 61.197 41.3661 61.2016 41.3705C61.2113 41.3799 61.2069 41.3785 61.188 41.3461C61.1718 41.3182 61.1514 41.279 61.1261 41.2264C61.0755 41.1211 61.0131 40.9793 60.935 40.8015L60.4772 41.0027C60.554 41.1774 60.6203 41.3283 60.6756 41.4431C60.7032 41.5006 60.7301 41.5532 60.7558 41.5975C60.7789 41.6373 60.8112 41.6883 60.8527 41.7287C60.8732 41.7487 60.9119 41.782 60.9685 41.8014C61.0357 41.8243 61.1189 41.8234 61.1949 41.7787C61.2591 41.7408 61.2918 41.6866 61.307 41.6561C61.3235 41.623 61.3329 41.5903 61.3389 41.5648C61.3606 41.4717 61.3659 41.3334 61.3659 41.1713H60.8659ZM59.8378 39.6266C60.2101 40.1423 60.5648 40.697 60.8976 41.2932L61.3342 41.0495C60.992 40.4365 60.6269 39.8655 60.2433 39.3339L59.8378 39.6266ZM8.66511 39.6266C12.724 34.0037 18.8962 32.9871 21.5778 33.3844L21.6511 32.8898C18.8132 32.4693 12.4438 33.5376 8.2597 39.3339L8.66511 39.6266ZM21.6673 32.8927C17.5998 32.0133 14.6277 32.8552 12.4747 34.3198C10.3308 35.7783 9.02084 37.8392 8.23983 39.3664L8.68499 39.5941C9.44903 38.1001 10.7118 36.1239 12.756 34.7332C14.7911 33.3488 17.6224 32.5297 21.5616 33.3814L21.6673 32.8927ZM7.60539 41.2932C7.93815 40.697 8.29284 40.1423 8.66511 39.6266L8.2597 39.3339C7.87604 39.8655 7.51094 40.4365 7.16879 41.0495L7.60539 41.2932ZM7.56799 40.8015C7.48983 40.9793 7.42747 41.1211 7.37682 41.2264C7.35153 41.279 7.33115 41.3182 7.31493 41.3461C7.2961 41.3785 7.29169 41.3799 7.30134 41.3705C7.30592 41.3661 7.32986 41.3429 7.37292 41.3282C7.42653 41.3099 7.49737 41.3098 7.56199 41.3479C7.61496 41.3792 7.63741 41.4209 7.64346 41.4331C7.65082 41.4478 7.65217 41.4562 7.65101 41.4512C7.64433 41.4226 7.63709 41.3408 7.63709 41.1713H7.13709C7.13709 41.3334 7.14234 41.4717 7.16408 41.5648C7.17002 41.5903 7.17947 41.623 7.19598 41.6561C7.21118 41.6866 7.24383 41.7408 7.3081 41.7787C7.38402 41.8234 7.46726 41.8243 7.53443 41.8014C7.59105 41.782 7.62971 41.7487 7.65022 41.7287C7.69172 41.6883 7.72401 41.6373 7.74715 41.5975C7.77289 41.5532 7.79975 41.5006 7.8274 41.4431C7.88263 41.3283 7.94895 41.1774 8.02571 41.0027L7.56799 40.8015ZM8.23983 39.3664C7.94784 39.9374 7.72853 40.4363 7.56799 40.8015L8.02571 41.0027C8.18609 40.6379 8.40029 40.1508 8.68499 39.5941L8.23983 39.3664ZM2.60079 21.958C2.68896 22.5751 2.97559 23.5599 3.54851 24.5463C4.12237 25.5344 4.99151 26.5377 6.25147 27.1676L6.47508 26.7204C5.32476 26.1453 4.52009 25.2236 3.98087 24.2952C3.44071 23.3651 3.17498 22.4418 3.09577 21.8872L2.60079 21.958ZM6.25148 27.1676C6.26594 27.1749 6.22864 27.1609 6.19648 27.1134C6.17621 27.0834 6.15135 27.0295 6.15887 26.9596C6.16635 26.89 6.20178 26.8429 6.22718 26.8183C6.2679 26.7789 6.30699 26.7723 6.29412 26.7758C6.29153 26.7765 6.27969 26.7791 6.25526 26.7816C6.15475 26.792 5.961 26.789 5.70204 26.7585C5.18847 26.6981 4.47556 26.5366 3.83881 26.2183C3.2004 25.8991 2.66968 25.4386 2.45809 24.7947C2.24812 24.1556 2.33124 23.2702 3.06265 22.0512L2.63391 21.794C1.85886 23.0857 1.71182 24.1252 1.98307 24.9507C2.25269 25.7713 2.91457 26.3152 3.61521 26.6655C4.31751 27.0166 5.09013 27.19 5.64362 27.2551C5.91818 27.2874 6.15335 27.2948 6.30653 27.279C6.34552 27.275 6.38615 27.2688 6.42398 27.2586C6.45153 27.2512 6.51898 27.2317 6.57489 27.1776C6.6079 27.1457 6.64764 27.0908 6.656 27.013C6.6644 26.9348 6.637 26.8722 6.61062 26.8332C6.56624 26.7676 6.50246 26.7341 6.47508 26.7204L6.25148 27.1676ZM49.3676 2.24999C50.1951 3.08215 51.6819 4.6681 51.5923 7.23294L52.092 7.2504C52.1894 4.46232 50.5638 2.74374 49.7222 1.89743L49.3676 2.24999ZM51.9645 7.45966C52.375 7.22918 52.7295 6.80601 52.9585 6.30531C53.1889 5.80176 53.302 5.19931 53.2073 4.59391C53.1118 3.98438 52.8067 3.38103 52.2169 2.88504C51.6299 2.39148 50.7726 2.01355 49.5837 1.82674L49.5061 2.32068C50.632 2.4976 51.3962 2.84823 51.8951 3.26773C52.3911 3.6848 52.6362 4.17901 52.7133 4.67124C52.791 5.16758 52.6988 5.67107 52.5038 6.09733C52.3076 6.52643 52.0167 6.85694 51.7197 7.02368L51.9645 7.45966ZM17.0291 7.49813C17.0773 6.94006 17.2911 6.00331 17.7787 5.04459C18.2653 4.08756 19.0174 3.12252 20.1338 2.48416L19.8857 2.0501C18.6628 2.74931 17.8509 3.79943 17.333 4.81796C16.8159 5.8348 16.5846 6.834 16.5309 7.45511L17.0291 7.49813ZM20.1338 2.48416C20.1604 2.46897 20.2222 2.43192 20.2629 2.36396C20.287 2.32355 20.3109 2.25954 20.2982 2.18197C20.2855 2.10472 20.2428 2.05216 20.208 2.02211C20.1492 1.9712 20.0807 1.95549 20.0528 1.94963C20.0145 1.94158 19.9736 1.93767 19.9344 1.93583C19.7806 1.9286 19.5462 1.94911 19.2739 1.99666C18.7249 2.09252 17.9631 2.30863 17.2815 2.69836C16.6014 3.08718 15.9709 3.66707 15.7474 4.50141C15.5226 5.34079 15.7273 6.37046 16.5732 7.61699L16.9869 7.33625C16.1887 6.1599 16.0564 5.28051 16.2304 4.63077C16.4058 3.97599 16.91 3.48671 17.5297 3.13242C18.1477 2.77907 18.8505 2.57815 19.3599 2.48921C19.6167 2.44436 19.81 2.43053 19.9109 2.43528C19.9355 2.43643 19.9475 2.43841 19.9501 2.43896C19.9631 2.44169 19.9237 2.4373 19.8809 2.40023C19.8541 2.3771 19.8161 2.33209 19.8048 2.26301C19.7934 2.19359 19.8152 2.13835 19.8338 2.10731C19.8632 2.05805 19.8997 2.04207 19.8857 2.0501L20.1338 2.48416ZM66.1725 32.0319C65.9786 31.4395 65.5253 30.5194 64.7898 29.6475C64.053 28.774 63.0229 27.937 61.6727 27.5353L61.5301 28.0146C62.7628 28.3813 63.7153 29.1492 64.4076 29.9698C65.101 30.792 65.5231 31.6552 65.6974 32.1875L66.1725 32.0319ZM61.6727 27.5353C61.6572 27.5307 61.6963 27.538 61.7362 27.5792C61.7614 27.6052 61.7953 27.654 61.8 27.7242C61.8047 27.794 61.778 27.8465 61.7573 27.8751C61.724 27.921 61.6866 27.9343 61.6987 27.9286C61.7011 27.9275 61.7123 27.9228 61.736 27.9161C61.8332 27.8885 62.0245 27.8578 62.2848 27.8428C62.8011 27.8132 63.5312 27.8484 64.2135 28.0513C64.8977 28.2548 65.5003 28.6161 65.8205 29.2136C66.1382 29.8064 66.2101 30.6928 65.7015 32.0203L66.1684 32.1992C66.7074 30.7925 66.6717 29.7433 66.2612 28.9774C65.8532 28.2161 65.1069 27.7954 64.3561 27.5721C63.6035 27.3482 62.8125 27.3117 62.2561 27.3437C61.9801 27.3595 61.7472 27.3931 61.5991 27.4352C61.5614 27.4459 61.5225 27.4591 61.487 27.4757C61.4611 27.4878 61.3981 27.5187 61.3524 27.5817C61.3255 27.6189 61.2959 27.6798 61.3011 27.7579C61.3064 27.8363 61.3443 27.8932 61.3771 27.927C61.4321 27.9839 61.5008 28.0059 61.5301 28.0146L61.6727 27.5353ZM34.8242 33.3884C34.7341 32.0374 33.8428 31.0518 33.0652 30.1806L32.6921 30.5136C33.4924 31.4101 34.2485 32.2701 34.3253 33.4217L34.8242 33.3884ZM36.2365 29.7969C35.381 30.7426 34.3248 31.8936 34.3248 33.405H34.8248C34.8248 32.1193 35.7215 31.1115 36.6073 30.1323L36.2365 29.7969ZM37.504 27.764C37.504 28.0553 37.3773 28.3618 37.1436 28.7068C36.9099 29.0518 36.5899 29.4063 36.2365 29.7969L36.6073 30.1323C36.9542 29.7488 37.3003 29.367 37.5575 28.9872C37.8148 28.6074 38.004 28.2007 38.004 27.764H37.504ZM36.1375 29.4042C36.6953 29.0378 37.3398 28.6155 37.942 27.9289L37.5661 27.5992C37.0135 28.2293 36.4219 28.6191 35.8629 28.9864L36.1375 29.4042ZM36.1502 29.3953L36.1502 29.3953L35.8502 28.9953L35.8502 28.9953L36.1502 29.3953ZM34.785 30.5714C35.0905 30.0965 35.5539 29.7877 36.1375 29.4043L35.8629 28.9864C35.297 29.3582 34.7372 29.7215 34.3645 30.3008L34.785 30.5714ZM33.2089 29.6317C33.483 29.7876 33.7261 29.9263 33.9276 30.0775C34.1277 30.2277 34.2686 30.3775 34.3498 30.545L34.7998 30.3271C34.6703 30.0598 34.4609 29.8526 34.2278 29.6777C33.9961 29.5037 33.7234 29.3491 33.4561 29.1971L33.2089 29.6317ZM31.1567 27.5442C31.526 28.6843 32.4669 29.2097 33.2089 29.6317L33.4561 29.1971C32.694 28.7636 31.934 28.3215 31.6324 27.3901L31.1567 27.5442ZM33.0652 30.1806C32.6604 29.7271 32.2853 29.3056 32.0183 28.8621C31.7548 28.4243 31.6066 27.9806 31.6438 27.4859L31.1452 27.4484C31.098 28.0764 31.2909 28.6232 31.5899 29.12C31.8856 29.6111 32.2947 30.0682 32.6921 30.5136L33.0652 30.1806ZM31.5693 48.6697C30.0519 47.1004 28.4441 45.6852 25.9676 44.8833C23.4963 44.0832 20.1881 43.9024 15.279 44.7374L15.3629 45.2303C20.2289 44.4027 23.4478 44.593 25.8136 45.359C28.174 46.1233 29.7129 47.4692 31.2098 49.0173L31.5693 48.6697ZM19.8964 46.8519C21.3217 46.7811 25.6345 46.5655 31.2882 49.072L31.4909 48.6149C25.7344 46.0628 21.3314 46.28 19.8716 46.3525L19.8964 46.8519ZM19.5042 46.8668C19.5983 46.8668 19.7335 46.86 19.8964 46.8519L19.8716 46.3525C19.7024 46.3609 19.5828 46.3668 19.5042 46.3668V46.8668ZM19.0686 46.9742C19.0688 46.9746 19.0685 46.9739 19.0684 46.9725C19.0682 46.9712 19.0683 46.9703 19.0684 46.9697C19.0684 46.9693 19.0685 46.9688 19.0691 46.9677C19.0695 46.9668 19.0712 46.9636 19.0762 46.9585C19.0973 46.9369 19.1957 46.8668 19.5042 46.8668V46.3668C19.1431 46.3668 18.8788 46.4451 18.7186 46.6091C18.5475 46.7842 18.5454 47.0032 18.6006 47.1501L19.0686 46.9742ZM20.5887 47.0902C20.1988 47.0501 19.8616 47.0153 19.5774 46.974C19.2907 46.9323 19.0751 46.8861 18.9235 46.8285L18.7458 47.2958C18.9507 47.3737 19.2111 47.426 19.5054 47.4688C19.8022 47.5119 20.1509 47.5478 20.5375 47.5876L20.5887 47.0902ZM20.5631 47.0889H20.5631V47.5889H20.5631V47.0889ZM28.1522 49.0651C25.1278 47.5564 22.3667 47.2733 20.5887 47.0902L20.5375 47.5876C22.3095 47.77 24.9917 48.0472 27.929 49.5126L28.1522 49.0651ZM39.6325 52.7535C37.582 52.4095 32.4074 51.1879 28.1522 49.0651L27.929 49.5126C32.2437 51.665 37.4707 52.8978 39.5498 53.2466L39.6325 52.7535ZM14.5184 52.9738L39.5884 53.25L39.5939 52.75L14.524 52.4738L14.5184 52.9738ZM12.6221 52.454C12.6166 52.4544 12.6081 52.4552 12.5988 52.4566C12.5944 52.4572 12.5859 52.4585 12.5756 52.4609C12.5746 52.4611 12.538 52.4683 12.4996 52.492C12.4868 52.4998 12.413 52.5447 12.388 52.6441C12.3553 52.774 12.4314 52.8632 12.4655 52.8931C12.4982 52.9218 12.5302 52.9346 12.5395 52.9382C12.5531 52.9435 12.5644 52.9466 12.5705 52.9481C12.591 52.9533 12.609 52.9549 12.6119 52.9552C12.6333 52.9574 12.6659 52.9586 12.6983 52.9595C12.7701 52.9615 12.889 52.9632 13.0498 52.9648C13.3726 52.9681 13.8717 52.9709 14.5201 52.9738L14.5223 52.4738C13.8738 52.4709 13.376 52.4681 13.0549 52.4649C12.8938 52.4632 12.7791 52.4615 12.7122 52.4597C12.6752 52.4586 12.6621 52.4578 12.6625 52.4578C12.6634 52.4579 12.6661 52.4582 12.6698 52.4587C12.6725 52.4591 12.6813 52.4604 12.6927 52.4633C12.6983 52.4647 12.7091 52.4676 12.7223 52.4728C12.7312 52.4763 12.763 52.4889 12.7955 52.5175C12.8294 52.5473 12.9056 52.6363 12.8729 52.7661C12.8479 52.8653 12.7742 52.9101 12.7617 52.9178C12.7385 52.9321 12.7183 52.9391 12.7106 52.9417C12.7008 52.945 12.6928 52.947 12.6883 52.948C12.6792 52.9501 12.6723 52.9511 12.6699 52.9515C12.6647 52.9522 12.6618 52.9524 12.6635 52.9523L12.6221 52.454ZM18.8885 51.3921C18.2735 51.6096 16.9035 52.0979 12.6221 52.454L12.6635 52.9523C16.9799 52.5933 18.393 52.0976 19.0552 51.8635L18.8885 51.3921ZM18.8703 51.3993L18.8703 51.3994L19.0733 51.8563L19.0734 51.8562L18.8703 51.3993ZM19.2943 51.2694C19.1715 51.2912 19.0379 51.3393 18.8885 51.3921L19.0552 51.8635C19.2195 51.8054 19.3087 51.7747 19.3818 51.7617L19.2943 51.2694ZM19.6115 51.3125C19.6982 51.3345 19.7466 51.357 19.7642 51.3687C19.7732 51.3747 19.7575 51.367 19.7416 51.3392C19.7209 51.3028 19.7098 51.2476 19.7292 51.1919C19.7448 51.1473 19.7704 51.1308 19.7643 51.1354C19.76 51.1386 19.7428 51.1498 19.7039 51.1656C19.6261 51.1971 19.4957 51.2336 19.2943 51.2694L19.3818 51.7617C19.5982 51.7233 19.7674 51.6794 19.8917 51.6289C19.9539 51.6038 20.0134 51.5735 20.0641 51.5356C20.1129 51.499 20.1717 51.4416 20.2013 51.3567C20.2348 51.2608 20.2185 51.1662 20.1761 51.0918C20.1386 51.0259 20.0847 50.9814 20.0415 50.9526C19.9547 50.8948 19.8428 50.8554 19.7343 50.8279L19.6115 51.3125ZM15.279 44.7374C14.3921 44.8882 13.6074 45.3127 13.0851 45.8905C12.5615 46.4697 12.2921 47.2174 12.4839 47.9891C12.6749 48.7571 13.3072 49.4868 14.4542 50.0713C15.6019 50.6562 17.2895 51.1098 19.6508 51.3192L19.695 50.8212C17.3696 50.615 15.7514 50.1712 14.6813 49.6258C13.6105 49.0802 13.113 48.447 12.9692 47.8685C12.8262 47.2937 13.0171 46.7113 13.456 46.2258C13.8961 45.7389 14.576 45.3642 15.3629 45.2303L15.279 44.7374Z" fill="#42645A"/>
</svg>
